<?xml version="1.0" standalone="no"?>
<!DOCTYPE svg PUBLIC "-//W3C//DTD SVG 20010904//EN"
 "http://www.w3.org/TR/2001/REC-SVG-20010904/DTD/svg10.dtd">
<svg version="1.0" xmlns="http://www.w3.org/2000/svg"
 width="480.000000pt" height="480.000000pt" viewBox="0 0 480.000000 480.000000"
 preserveAspectRatio="xMidYMid meet">

<g transform="translate(0.000000,480.000000) scale(0.100000,-0.100000)"
fill="#000000" stroke="none">
<path d="M4050 4790 c8 -5 12 -10 7 -10 -4 0 0 -15 9 -32 27 -53 176 -298 184
-303 4 -3 8 5 8 18 0 12 10 72 22 132 12 61 24 131 27 158 l6 47 -139 0 c-94
0 -134 -3 -124 -10z"/>
<path d="M4410 4763 c-14 -39 -17 -51 -24 -93 -13 -75 -59 -257 -71 -279 -13
-24 -10 -32 32 -111 56 -105 166 -289 208 -350 17 -25 51 -79 75 -120 52 -89
162 -273 167 -279 1 -2 3 151 3 341 0 385 6 354 -69 364 -18 3 -47 14 -62 25
-45 32 -43 40 66 452 l24 87 -168 0 -167 0 -14 -37z"/>
<path d="M1946 3738 l-17 -33 20 24 c18 20 27 41 18 41 -1 0 -11 -15 -21 -32z"/>
<path d="M2020 3754 c0 -10 105 -104 117 -104 25 0 9 35 -25 53 -11 7 -37 22
-56 34 -20 12 -36 20 -36 17z"/>
<path d="M2179 3710 c46 -22 86 -40 90 -40 12 1 -144 79 -159 79 -8 0 23 -17
69 -39z"/>
<path d="M1620 3737 c-1 -1 -3 -23 -5 -48 -5 -52 -32 -129 -46 -129 -5 0 -9 6
-9 13 0 8 -3 8 -9 -2 -11 -18 -53 -22 -63 -8 -4 8 -14 5 -27 -7 -20 -18 -21
-18 -30 5 -9 21 -10 22 -11 4 0 -11 -8 -29 -17 -40 -13 -16 -15 -17 -10 -2 4
9 2 17 -3 17 -6 0 -10 -10 -11 -22 0 -22 -1 -22 -9 -3 -5 11 -9 16 -9 12 -1
-4 -39 13 -85 38 -104 57 -154 67 -326 70 -74 1 -161 7 -193 14 -32 7 -61 11
-63 8 -3 -2 15 -21 40 -40 24 -20 54 -58 67 -83 12 -25 39 -72 61 -103 21 -31
49 -72 62 -91 29 -44 52 -64 65 -55 6 3 23 -1 38 -10 27 -16 23 -16 -22 0 -20
7 -20 6 -1 -9 11 -9 25 -16 32 -16 6 0 18 -7 25 -17 8 -9 37 -27 64 -39 28
-13 43 -24 35 -25 -10 0 -8 -3 5 -9 l20 -9 -20 -1 c-19 -1 -19 -1 1 -13 18
-10 19 -14 9 -24 -7 -6 -16 -9 -19 -6 -3 4 -6 3 -6 -2 0 -4 8 -14 18 -21 14
-11 15 -16 5 -33 -18 -29 -17 -47 1 -32 10 9 16 8 26 -4 11 -14 7 -19 -12 -16
-5 0 -8 -3 -8 -9 0 -5 6 -10 13 -10 17 0 11 -58 -8 -80 -7 -8 -18 -25 -24 -37
-6 -13 44 33 111 100 68 68 146 138 173 156 28 18 40 30 27 26 -21 -6 -21 -5
-11 21 5 16 15 34 21 42 11 12 15 152 7 196 -3 15 4 22 26 29 25 7 35 21 64
89 18 44 39 101 46 127 7 25 14 39 14 31 1 -18 37 -24 47 -8 5 7 2 8 -6 3 -9
-6 -11 -4 -6 4 6 9 12 9 25 -3 9 -8 38 -25 64 -36 26 -12 47 -23 47 -25 0 -2
-38 -29 -85 -60 -47 -31 -85 -58 -85 -61 0 -7 7 -3 136 83 60 40 121 85 135
100 18 21 19 24 4 13 -11 -8 -24 -19 -30 -25 -5 -5 -22 -18 -38 -28 -27 -18
-28 -17 -80 16 -51 33 -147 87 -147 84z m-749 -265 c-7 -2 -18 1 -23 6 -8 8
-4 9 13 5 13 -4 18 -8 10 -11z m49 -82 c8 -5 11 -10 5 -10 -5 0 -17 5 -25 10
-8 5 -10 10 -5 10 6 0 17 -5 25 -10z m234 -10 c4 -5 -6 -8 -25 -7 -18 1 -34 8
-37 15 -3 9 4 11 25 6 15 -4 32 -10 37 -14z m49 -187 c-7 -2 -21 -2 -30 0 -10
3 -4 5 12 5 17 0 24 -2 18 -5z m142 -13 c3 -5 2 -10 -4 -10 -5 0 -13 5 -16 10
-3 6 -2 10 4 10 5 0 13 -4 16 -10z"/>
<path d="M1955 3709 c-4 -6 -5 -12 -2 -15 2 -3 7 2 10 11 7 17 1 20 -8 4z"/>
<path d="M1919 3657 c-9 -7 -14 -18 -12 -25 3 -8 -1 -10 -13 -5 -12 4 -15 3
-10 -5 12 -19 25 -14 41 18 17 33 17 35 -6 17z"/>
<path d="M2301 3652 c22 -17 83 -43 98 -42 6 1 -110 60 -118 60 -2 0 7 -8 20
-18z"/>
<path d="M1865 3599 c-4 -6 -5 -12 -2 -15 2 -3 7 2 10 11 7 17 1 20 -8 4z"/>
<path d="M3012 3490 c155 -168 150 -158 145 -270 -5 -119 -49 -369 -83 -475
-25 -75 -95 -229 -114 -248 -8 -9 -17 27 -19 81 -2 48 -26 156 -56 245 -14 43
-23 88 -19 101 3 12 6 45 8 73 2 49 1 51 -19 41 -17 -9 -18 -9 -9 3 17 21 15
79 -2 86 -8 3 -14 11 -14 19 0 8 -5 14 -12 14 -9 0 -9 3 0 12 17 17 15 31 -3
24 -11 -4 -15 2 -16 27 -1 32 -1 32 -16 -10 -8 -24 -18 -43 -23 -43 -11 0 -23
56 -16 69 4 5 2 13 -4 16 -8 5 -7 11 1 21 8 10 8 14 0 14 -6 0 -11 9 -11 20 0
11 -4 20 -10 20 -5 0 -7 -8 -4 -17 5 -15 4 -15 -6 1 -10 15 -14 16 -21 5 -8
-11 -14 -9 -30 10 -11 14 -23 37 -26 53 -3 15 -9 25 -14 22 -5 -3 -19 7 -32
21 -12 15 -35 41 -51 59 l-28 31 21 -30 c115 -159 214 -323 205 -337 -4 -6 -3
-8 3 -5 16 10 17 -27 12 -335 -2 -109 1 -151 12 -177 l15 -34 1 59 c1 100 6
153 14 149 4 -3 7 5 6 18 -1 56 8 97 21 97 17 0 39 -53 69 -170 25 -101 31
-215 15 -285 -22 -91 -42 -159 -49 -164 -5 -3 -9 -15 -10 -26 -4 -51 -14 -87
-33 -124 -36 -72 -143 -223 -201 -286 -30 -33 -64 -75 -75 -93 -15 -26 -23
-32 -39 -26 -11 3 -33 7 -50 8 -28 1 -30 -1 -27 -29 2 -23 -6 -40 -30 -68 -54
-61 -97 -76 -213 -74 -115 1 -184 19 -241 61 -66 50 -70 51 -49 27 34 -40 117
-97 170 -115 28 -10 57 -21 65 -24 24 -8 28 -9 58 -11 l27 -2 -25 -11 c-14 -6
-41 -19 -60 -28 -71 -37 -380 -144 -506 -176 l-70 -17 -47 49 c-46 47 -47 48
-64 29 -15 -16 -15 -17 -1 -6 14 10 16 9 11 -8 -3 -12 -1 -21 4 -21 5 0 18 -8
29 -18 11 -10 32 -27 47 -36 15 -10 27 -26 27 -35 0 -13 2 -13 9 -2 7 10 11 9
23 -8 8 -11 18 -18 21 -15 4 4 5 -3 2 -15 -4 -24 -1 -25 26 -11 17 9 19 7 19
-17 0 -14 -10 -37 -22 -50 -22 -23 -23 -36 -20 -133 1 -19 0 -48 -1 -65 -2
-16 3 -47 11 -68 8 -21 12 -40 9 -43 -3 -3 8 -42 24 -86 21 -56 30 -100 30
-144 1 -35 4 -64 7 -64 4 0 15 20 25 45 26 61 84 135 107 135 21 0 76 51 85
79 3 10 23 31 45 46 24 16 45 42 55 68 9 22 27 54 40 69 28 34 49 100 40 129
-4 11 -3 33 0 51 l7 31 23 -27 c16 -19 25 -23 28 -14 4 9 6 9 6 -2 1 -9 -6
-25 -13 -36 -18 -26 -22 -137 -8 -216 6 -31 21 -78 35 -105 14 -26 29 -59 32
-73 9 -30 43 -70 61 -70 7 0 15 -9 19 -19 3 -11 36 -51 73 -88 37 -38 82 -98
101 -134 54 -104 56 -103 56 29 0 110 2 120 28 163 15 25 27 56 27 68 0 12 12
38 26 56 19 26 28 54 36 112 10 78 6 178 -7 220 -6 18 -3 23 9 23 18 0 22 15
6 25 -5 3 -10 19 -10 34 0 21 5 28 16 27 9 0 19 5 22 13 3 8 0 11 -7 7 -17
-11 -13 12 7 32 21 23 26 42 10 43 -7 0 -2 4 10 10 13 5 29 6 34 2 7 -3 8 -1
4 5 -12 20 10 13 30 -9 21 -23 66 -49 86 -49 7 0 0 8 -17 19 -16 10 -38 27
-48 38 -17 20 -17 21 27 32 24 6 52 8 62 4 11 -4 15 -3 11 4 -4 6 6 16 23 22
18 6 28 6 25 1 -4 -6 -13 -10 -21 -10 -8 0 -12 -5 -9 -11 4 -6 -2 -13 -14 -16
-12 -3 -21 -9 -21 -13 0 -5 10 -6 23 -3 l22 6 -22 -20 c-22 -20 -33 -50 -14
-39 5 4 12 0 14 -6 4 -8 8 -4 12 10 4 12 12 22 17 22 13 0 162 109 209 152 19
18 55 58 79 88 24 30 54 65 67 76 28 26 29 47 4 82 -45 64 -53 91 -40 130 12
37 37 64 51 56 5 -3 8 0 8 5 0 15 37 14 44 -1 3 -10 8 -9 15 3 7 11 23 16 46
15 19 -1 35 2 35 6 0 4 12 3 26 -2 23 -9 25 -8 18 12 -6 22 -6 22 12 3 10 -10
19 -25 19 -34 0 -9 7 -16 15 -16 9 0 16 -11 18 -27 2 -16 8 -28 13 -28 5 0 9
-8 9 -18 0 -10 3 -22 8 -26 7 -8 9 -19 13 -86 1 -19 5 -39 9 -45 4 -5 10 -39
14 -75 8 -82 12 -115 23 -165 5 -22 9 -56 9 -75 -1 -19 2 -37 5 -40 4 -3 10
-30 13 -60 4 -30 11 -75 17 -100 6 -25 11 -54 12 -65 1 -11 6 -26 10 -32 5 -8
4 -13 -2 -13 -7 0 -7 -8 -1 -26 16 -42 12 -82 -9 -89 -10 -3 -21 -15 -24 -27
-5 -18 -11 -20 -56 -16 -28 3 -51 1 -51 -3 0 -5 5 -9 12 -9 7 0 8 -3 3 -9 -6
-4 -35 -5 -65 -1 -30 4 -49 8 -41 9 8 0 12 4 9 7 -4 3 -16 1 -27 -6 -17 -8
-21 -8 -21 4 0 8 -10 14 -22 14 -39 -1 -78 6 -78 13 0 4 -16 9 -35 11 -24 3
-35 0 -35 -9 0 -7 -9 -13 -19 -13 -11 0 -23 -4 -26 -10 -3 -5 -1 -10 5 -10 7
0 10 -7 6 -15 -3 -9 0 -15 10 -15 8 0 12 -4 9 -10 -3 -5 -1 -10 5 -10 6 0 8
-5 4 -12 -5 -7 -2 -9 7 -6 17 6 24 -28 8 -37 -15 -10 -10 -25 7 -25 11 0 14
-5 10 -16 -3 -9 -6 -17 -6 -19 0 -2 -13 3 -30 11 -31 16 -50 12 -50 -9 0 -7 4
-6 10 3 5 8 12 11 17 7 4 -5 1 -12 -7 -17 -11 -7 -21 -3 -35 13 -11 13 -28 27
-39 31 -15 5 -16 9 -5 22 10 12 10 15 -2 12 -8 -2 -13 4 -13 14 1 10 -2 15 -8
12 -5 -3 -6 -15 -2 -26 4 -13 2 -18 -4 -14 -11 7 -29 -20 -43 -63 l-7 -26 -2
30 c-6 82 23 165 57 165 4 0 14 9 21 20 17 27 8 25 -36 -7 -67 -50 -103 -104
-137 -203 -1 -3 -5 -13 -9 -23 -18 -39 -10 -248 11 -289 9 -18 10 -28 3 -28
-7 0 -10 -20 -9 -50 2 -37 7 -50 18 -51 9 0 6 -5 -9 -11 -15 -6 -20 -12 -12
-15 6 -3 12 -12 12 -22 0 -9 5 -22 11 -28 9 -9 6 -21 -9 -47 l-21 -35 570 -1
569 -1 0 22 c0 15 -4 19 -16 15 -13 -5 -15 -2 -11 14 3 11 1 20 -3 20 -5 0
-10 19 -12 43 l-3 42 -14 -27 c-8 -16 -19 -24 -25 -20 -6 4 -15 7 -21 7 -5 0
-8 11 -7 25 4 22 2 23 -14 10 -16 -14 -17 -13 -12 8 5 17 3 21 -5 14 -7 -5
-21 -6 -32 -1 -11 4 -14 8 -7 8 8 1 10 9 6 25 -10 43 55 93 78 61 5 -6 12 -5
20 3 17 17 25 15 43 -12 13 -19 14 -32 6 -60 -11 -42 1 -47 24 -12 16 25 32
27 82 11 13 -4 20 -12 16 -18 -3 -5 -1 -7 4 -4 6 4 46 -10 89 -31 169 -82 378
-142 498 -142 l46 0 0 185 c0 176 -1 185 -19 185 -11 0 -22 4 -25 8 -3 5 -36
-1 -73 -13 -37 -12 -81 -25 -98 -29 -29 -7 -29 -7 -10 9 20 16 19 16 -5 9 -21
-6 -23 -5 -13 8 14 17 8 29 -12 22 -8 -3 -21 13 -35 40 -12 25 -25 46 -30 46
-12 0 -19 52 -35 264 -9 111 -18 219 -20 241 -2 22 -9 110 -15 195 -6 85 -12
171 -14 190 -4 35 -13 124 -42 440 -9 105 -20 178 -27 182 -9 6 -9 8 0 8 9 0
9 8 1 30 -6 17 -8 44 -4 60 3 16 2 31 -2 34 -5 3 -8 27 -7 55 1 37 -3 52 -14
56 -33 13 -99 16 -134 7 -33 -9 -37 -8 -81 37 -26 26 -43 51 -39 56 5 4 3 6
-2 2 -6 -3 -21 10 -34 29 -13 19 -27 34 -31 34 -13 0 -69 63 -64 72 3 4 1 8
-4 8 -5 0 -9 6 -9 13 0 6 -10 73 -22 147 -12 74 -26 164 -32 200 -6 36 -12 75
-14 86 -6 30 -54 47 -112 40 -71 -8 -73 -9 -67 -17 2 -4 -3 -12 -11 -16 -9 -5
-18 -22 -21 -38 -3 -15 -9 -36 -14 -45 -10 -18 -73 -36 -90 -25 -6 3 -10 2
-10 -3 0 -5 -9 -12 -20 -15 -11 -3 -18 -2 -15 3 10 15 -40 19 -69 5 -32 -17
-59 -20 -36 -5 13 8 12 10 -2 10 -10 0 -18 -5 -18 -11 0 -7 -11 -8 -31 -4 -22
5 -29 4 -25 -4 5 -7 -3 -11 -21 -12 -15 -1 -38 -3 -50 -4 -13 -1 -23 2 -23 6
0 5 -4 9 -10 9 -5 0 -7 -6 -4 -13 3 -9 -6 -12 -36 -9 -29 3 -40 9 -40 21 0 32
22 96 36 104 8 5 12 12 9 18 -4 5 -1 9 4 9 6 0 11 7 11 15 0 8 6 15 14 15 8 0
18 9 21 20 3 11 15 20 26 20 21 0 26 16 7 23 -7 3 -4 6 8 6 19 1 31 31 12 31
-5 0 5 14 21 32 19 21 26 35 19 39 -7 4 -4 9 8 12 18 4 18 5 1 6 -14 1 -17 6
-12 22 4 12 8 28 9 35 1 7 5 16 8 19 7 8 -14 55 -26 55 -5 0 -3 6 3 14 10 11
8 16 -5 24 -11 6 -15 16 -10 27 4 12 2 16 -7 12 -8 -3 -14 0 -14 7 0 16 -44
76 -55 76 -5 0 -7 4 -4 9 3 5 -2 8 -12 7 -11 -1 -16 5 -14 18 3 14 -1 17 -13
12 -11 -4 -24 1 -35 14 -11 12 -24 18 -34 14 -9 -3 -16 -1 -16 6 0 6 -4 9 -9
6 -5 -3 -14 1 -21 10 -7 8 -20 12 -28 9 -7 -3 -33 9 -55 27 -26 21 -5 -7 55
-72z m385 -766 c-3 -4 4 -15 16 -26 l22 -19 -22 6 c-25 7 -32 -9 -8 -19 8 -3
15 -10 15 -17 0 -6 -7 -8 -16 -5 -13 5 -15 2 -9 -11 15 -36 17 -63 6 -63 -7 0
-9 -5 -6 -10 4 -6 4 -19 0 -28 -4 -9 -9 -37 -10 -62 -1 -25 -3 -47 -5 -50 -1
-3 -2 -12 -1 -22 1 -9 -3 -19 -8 -23 -7 -4 -9 1 -5 12 5 14 4 15 -4 4 -6 -9
-7 -23 -1 -38 5 -14 5 -23 -1 -23 -6 0 -10 -14 -10 -31 0 -16 -4 -28 -9 -24
-5 3 -11 -5 -13 -17 -2 -16 -9 -22 -20 -20 -10 2 -18 -3 -18 -10 0 -9 -3 -9
-11 2 -9 12 -9 11 -4 -5 5 -11 9 -31 10 -45 2 -14 4 -29 5 -35 1 -5 2 -22 1
-37 -1 -33 -21 -38 -21 -6 0 20 -1 20 -20 3 -14 -12 -17 -22 -10 -34 5 -10 5
-23 1 -30 -4 -7 -6 -23 -3 -37 2 -13 0 -24 -6 -24 -6 0 -8 -13 -6 -30 3 -18 1
-30 -6 -30 -6 0 -8 -10 -4 -26 4 -17 3 -25 -3 -21 -6 4 -10 -11 -10 -36 -1
-36 -18 -133 -48 -273 -4 -16 -10 -20 -28 -17 -19 4 -26 -2 -42 -36 -10 -22
-21 -38 -25 -36 -4 3 -11 -5 -14 -18 -7 -24 -93 -83 -171 -115 -68 -28 -196
-65 -203 -58 -3 3 -11 1 -18 -5 -8 -6 -21 -9 -29 -5 -9 3 -13 2 -10 -4 3 -6 0
-10 -9 -10 -8 0 -23 -3 -33 -6 -15 -5 -15 -4 -3 5 13 9 12 13 -7 31 -26 23
-48 27 -40 5 4 -8 2 -17 -3 -20 -6 -4 -10 -2 -10 3 0 10 -51 11 -60 2 -21 -23
-67 -50 -85 -50 -16 0 -36 -17 -66 -57 -51 -69 -120 -143 -132 -143 -4 0 -6
15 -2 33 3 17 10 73 15 122 6 50 12 97 15 105 3 9 6 35 7 58 1 23 6 42 11 42
5 0 7 -9 4 -20 -5 -18 -2 -17 31 5 44 30 69 32 77 5 3 -11 11 -20 16 -20 5 0
9 -11 9 -24 0 -14 4 -27 9 -31 6 -3 9 41 8 113 -2 101 0 119 13 118 8 -1 14 5
13 12 -2 6 3 12 11 12 8 0 41 27 74 60 33 33 65 60 72 60 8 0 11 2 8 5 -3 3
13 25 36 48 48 48 144 189 152 224 4 13 12 23 20 23 8 0 14 9 14 19 0 11 5 23
11 26 6 4 8 13 5 21 -3 8 -1 14 4 14 6 0 10 7 10 16 0 9 5 12 12 8 7 -4 8 -3
4 4 -4 6 0 24 8 40 8 16 12 33 8 36 -3 4 0 5 8 1 18 -6 42 55 61 155 13 71 33
112 74 150 28 26 59 85 64 120 0 6 15 10 32 10 24 0 30 4 25 15 -3 9 0 15 9
15 8 0 15 5 15 11 0 5 -5 7 -11 3 -6 -3 -4 5 5 18 9 14 14 27 11 30 -3 3 39 8
92 11 54 4 112 11 128 16 37 11 50 13 42 5z m38 -4 c3 -5 -1 -10 -10 -10 -9 0
-13 5 -10 10 3 6 8 10 10 10 2 0 7 -4 10 -10z m-85 -506 c0 -8 -4 -12 -10 -9
-5 3 -10 10 -10 16 0 5 5 9 10 9 6 0 10 -7 10 -16z m940 -14 c0 -5 -15 -10
-34 -10 -19 0 -38 5 -41 10 -4 6 10 10 34 10 23 0 41 -4 41 -10z m-196 -29 c5
-8 19 -171 31 -371 3 -52 2 -101 -3 -108 -11 -17 -64 -20 -69 -4 -3 8 1 10 13
5 9 -3 15 -2 13 3 -35 69 -58 142 -63 203 -2 30 -8 57 -13 60 -4 3 -9 30 -10
60 -2 29 -7 59 -12 65 -19 23 -1 77 29 89 24 9 78 8 84 -2z m-117 -133 c-3 -8
-6 -5 -6 6 -1 11 2 17 5 13 3 -3 4 -12 1 -19z m143 -384 c0 -8 5 -12 10 -9 6
3 10 -1 10 -10 0 -9 -4 -14 -9 -11 -5 4 -12 0 -14 -6 -3 -8 -6 -6 -6 5 -1 9
-5 17 -11 17 -6 0 -6 -9 0 -26 14 -37 12 -42 -6 -16 -10 14 -14 32 -10 48 7
26 36 34 36 8z m-53 -56 c-3 -8 -6 -5 -6 6 -1 11 2 17 5 13 3 -3 4 -12 1 -19z
m69 -15 c-10 -10 -19 5 -10 18 6 11 8 11 12 0 2 -7 1 -15 -2 -18z m-11 -71
c-3 -3 -11 0 -18 7 -9 10 -8 11 6 5 10 -3 15 -9 12 -12z m22 -19 c-3 -10 -5
-4 -5 12 0 17 2 24 5 18 2 -7 2 -21 0 -30z m-1024 2 c-3 -9 -8 -14 -10 -11 -3
3 -2 9 2 15 9 16 15 13 8 -4z m1004 -27 c-3 -8 -6 -5 -6 6 -1 11 2 17 5 13 3
-3 4 -12 1 -19z m-1847 -42 c0 -3 -4 -8 -10 -11 -5 -3 -10 -1 -10 4 0 6 5 11
10 11 6 0 10 -2 10 -4z m-30 -30 c0 -3 -4 -8 -10 -11 -5 -3 -10 -1 -10 4 0 6
5 11 10 11 6 0 10 -2 10 -4z m-350 -48 c0 -4 -7 -8 -15 -8 -8 0 -15 4 -15 8 0
5 7 9 15 9 8 0 15 -4 15 -9z m-22 -40 c-3 -7 -15 -14 -29 -16 -23 -2 -23 -2
-5 13 24 18 39 20 34 3z m102 -20 c-1 -26 -3 -30 -10 -16 -6 9 -7 23 -4 32 9
25 14 19 14 -16z m-220 -7 c0 -5 -16 -21 -35 -35 -42 -32 -46 -23 -8 16 27 28
43 35 43 19z m90 -16 c0 -23 -27 -55 -47 -55 -20 0 -22 3 -13 20 13 25 60 53
60 35z m108 -77 c-12 -25 -15 -23 -28 17 -9 28 -9 39 1 51 12 14 15 12 25 -17
7 -21 8 -41 2 -51z m-29 -43 c1 -33 -11 -65 -23 -65 -12 0 -36 45 -36 68 0 8
8 27 18 44 l17 29 12 -28 c7 -15 12 -37 12 -48z m641 17 c0 -22 -17 -4 -29 30
l-11 33 20 -25 c11 -14 20 -31 20 -38z m-761 11 c-7 -10 -13 -19 -14 -20 0 -1
-13 -5 -29 -9 l-28 -7 23 27 c26 30 71 39 48 9z m576 -53 l20 -25 -22 19 c-13
11 -23 24 -23 29 0 6 1 8 3 6 1 -2 11 -15 22 -29z m-705 16 c0 -2 -13 -19 -30
-37 -16 -19 -30 -28 -30 -21 0 7 11 24 25 37 22 23 35 31 35 21z m110 -29 c0
-7 -13 -21 -30 -30 -29 -18 -30 -18 -30 2 0 11 10 27 22 35 22 16 38 13 38 -7z
m86 -95 c-11 -23 -20 -32 -27 -25 -17 17 -22 81 -8 115 l13 32 19 -44 c18 -41
18 -45 3 -78z m193 56 c0 -27 -2 -29 -8 -13 -5 11 -6 26 -4 33 8 21 13 13 12
-20z m347 -42 l7 -30 -31 23 c-29 20 -46 41 -22 26 10 -6 15 8 11 30 -5 24 28
-23 35 -49z m-646 11 c0 -19 -29 -57 -45 -57 -28 0 9 68 38 70 4 0 7 -6 7 -13z
m62 -105 c-31 -23 -49 48 -24 92 3 5 13 -11 23 -35 16 -41 16 -45 1 -57z m773
55 c8 -20 11 -37 6 -37 -5 0 -12 11 -15 24 -3 13 -9 32 -13 43 -11 32 6 8 22
-30z m-952 -27 c-16 -40 -46 -57 -36 -21 4 18 38 61 48 61 2 0 -4 -18 -12 -40z
m767 7 c0 -5 -6 -5 -12 -2 -7 4 -5 0 4 -7 9 -8 13 -19 10 -25 -10 -16 -46 17
-49 43 -2 20 0 21 22 10 14 -6 25 -15 25 -19z m-680 -27 c0 -11 -2 -20 -4 -20
-2 0 -6 9 -9 20 -3 11 -1 20 4 20 5 0 9 -9 9 -20z m260 -2 c0 -13 -5 -30 -10
-38 -7 -11 -10 -5 -10 23 0 20 5 37 10 37 6 0 10 -10 10 -22z m277 2 c-1 -21
-10 -18 -13 5 -1 8 2 15 6 15 5 0 8 -9 7 -20z m-483 -17 c7 -24 3 -47 -9 -53
-6 -3 -11 12 -13 33 -3 38 12 52 22 20z m372 -25 c-3 -13 -6 -29 -6 -35 0 -7
-4 -13 -10 -13 -11 0 -14 53 -3 63 14 15 25 6 19 -15z m245 -13 c-1 -15 -24
-12 -29 3 -3 9 2 13 12 10 10 -1 17 -7 17 -13z m-108 -14 c2 -10 1 -25 -4 -32
-7 -11 -9 -11 -9 3 0 9 -3 23 -6 32 -3 9 -2 16 4 16 5 0 12 -9 15 -19z m-546
-33 c-3 -8 -6 -5 -6 6 -1 11 2 17 5 13 3 -3 4 -12 1 -19z m143 -29 c0 -14 -7
-34 -15 -45 -14 -19 -14 -19 -15 1 0 11 3 37 7 58 6 42 23 32 23 -14z m698 -5
c-3 -27 -4 -26 -9 8 -3 22 -1 34 4 29 5 -5 7 -21 5 -37z m-941 6 c-6 -16 -13
-27 -15 -25 -7 7 8 55 17 55 5 0 4 -13 -2 -30z m753 20 c0 -5 -4 -10 -10 -10
-5 0 -10 5 -10 10 0 6 5 10 10 10 6 0 10 -4 10 -10z m-186 -124 l-7 -21 -8 22
c-4 11 -5 31 -2 44 l6 23 9 -24 c5 -12 5 -32 2 -44z m313 -38 c-3 -8 -6 -5 -6
6 -1 11 2 17 5 13 3 -3 4 -12 1 -19z m704 -75 c13 -17 13 -17 -6 -3 -11 8 -22
16 -24 17 -2 2 0 3 6 3 6 0 17 -8 24 -17z m519 -283 c0 -5 -4 -10 -10 -10 -5
0 -10 5 -10 10 0 6 5 10 10 10 6 0 10 -4 10 -10z m150 -4 c0 -3 -4 -8 -10 -11
-5 -3 -10 -1 -10 4 0 6 5 11 10 11 6 0 10 -2 10 -4z m-253 -28 c-3 -8 -6 -5
-6 6 -1 11 2 17 5 13 3 -3 4 -12 1 -19z m218 12 c4 -6 -2 -24 -13 -41 -16 -26
-20 -28 -31 -15 -11 13 -10 17 3 22 10 4 15 12 12 19 -8 22 17 35 29 15z
m-168 -22 c-3 -8 -6 -5 -6 6 -1 11 2 17 5 13 3 -3 4 -12 1 -19z"/>
<path d="M3150 2675 c0 -8 5 -15 10 -15 6 0 10 7 10 15 0 8 -4 15 -10 15 -5 0
-10 -7 -10 -15z"/>
<path d="M3065 2580 c3 -5 8 -10 11 -10 2 0 4 5 4 10 0 6 -5 10 -11 10 -5 0
-7 -4 -4 -10z"/>
<path d="M3311 2254 c0 -11 3 -14 6 -6 3 7 2 16 -1 19 -3 4 -6 -2 -5 -13z"/>
<path d="M4088 1883 c7 -3 16 -2 19 1 4 3 -2 6 -13 5 -11 0 -14 -3 -6 -6z"/>
<path d="M4095 1711 c-3 -5 -1 -12 5 -16 5 -3 10 1 10 9 0 18 -6 21 -15 7z"/>
<path d="M1565 3460 c-3 -5 -2 -10 4 -10 5 0 13 5 16 10 3 6 2 10 -4 10 -5 0
-13 -4 -16 -10z"/>
<path d="M2107 3280 c-16 -5 -35 -6 -43 -3 -8 3 -14 0 -14 -6 0 -6 -8 -11 -18
-11 -10 0 -22 -4 -27 -9 -6 -6 -35 -12 -65 -14 -35 -2 -19 -4 45 -5 55 -1 129
-9 165 -16 l65 -14 42 41 c24 22 41 42 40 44 -2 1 -17 -1 -34 -6 -21 -6 -35
-5 -43 2 -10 9 -11 9 -5 -2 6 -11 4 -13 -8 -8 -10 3 -17 2 -17 -3 0 -6 -5 -10
-11 -10 -5 0 -7 4 -4 10 3 6 -1 7 -9 4 -9 -3 -16 -1 -16 5 0 13 -4 13 -43 1z
m30 -16 c-3 -3 -12 -4 -19 -1 -8 3 -5 6 6 6 11 1 17 -2 13 -5z"/>
<path d="M1848 3223 c6 -2 18 -2 25 0 6 3 1 5 -13 5 -14 0 -19 -2 -12 -5z"/>
<path d="M3141 3183 c0 -6 -4 -20 -7 -30 -5 -14 -4 -15 5 -7 7 7 11 20 8 30
-3 11 -5 14 -6 7z"/>
<path d="M1520 3170 c-8 -5 -10 -10 -5 -10 6 0 17 5 25 10 8 5 11 10 5 10 -5
0 -17 -5 -25 -10z"/>
<path d="M2322 3149 c47 -24 109 -102 154 -191 19 -37 37 -68 40 -68 11 0 -6
81 -24 119 -22 47 -65 111 -74 111 -4 0 -32 11 -62 25 -65 30 -87 33 -34 4z"/>
<path d="M2360 3160 c0 -5 5 -10 10 -10 6 0 10 5 10 10 0 6 -4 10 -10 10 -5 0
-10 -4 -10 -10z"/>
<path d="M3126 3121 c-4 -7 -5 -15 -2 -18 9 -9 19 4 14 18 -4 11 -6 11 -12 0z"/>
<path d="M2054 3013 c17 -33 41 -59 84 -92 17 -13 29 -28 26 -32 -3 -5 7 -4
22 1 15 6 29 8 32 5 3 -3 0 -5 -6 -5 -6 0 -1 -10 11 -23 l22 -23 23 20 c14 12
22 31 22 52 0 26 -5 33 -27 39 -15 3 -46 15 -70 26 -23 10 -48 19 -55 19 -7 0
-26 9 -43 20 -44 29 -59 27 -41 -7z"/>
<path d="M1972 3002 c65 -49 108 -72 108 -58 0 27 -57 70 -95 73 l-36 2 23
-17z"/>
<path d="M1933 2916 c-39 -7 -54 -15 -62 -33 -13 -28 -7 -29 26 -3 14 11 40
20 57 20 17 0 37 4 44 9 23 14 -7 18 -65 7z"/>
<path d="M2316 2906 c-7 -29 -2 -45 35 -108 33 -56 37 -76 20 -106 -23 -42 -4
-35 27 10 17 24 37 50 46 57 24 20 20 40 -20 88 -72 88 -97 101 -108 59z"/>
<path d="M1970 2880 c-30 -11 -56 -20 -58 -20 -3 0 1 -6 7 -14 7 -8 8 -16 4
-19 -7 -4 -8 -57 -4 -119 1 -11 39 -10 46 2 3 5 6 37 7 70 1 49 6 66 25 86 13
14 28 22 35 18 7 -4 8 -3 4 4 -4 7 -8 12 -9 12 -1 -1 -27 -10 -57 -20z"/>
<path d="M2011 2861 c-15 -10 -23 -81 -9 -81 17 0 68 31 68 41 0 19 -20 49
-33 49 -7 0 -18 -4 -26 -9z"/>
<path d="M1361 2714 c0 -11 3 -14 6 -6 3 7 2 16 -1 19 -3 4 -6 -2 -5 -13z"/>
<path d="M1840 2710 c8 -5 24 -10 35 -10 17 0 17 2 5 10 -8 5 -24 10 -35 10
-17 0 -17 -2 -5 -10z"/>
<path d="M1839 2662 c12 -18 21 -37 19 -44 -1 -7 3 -23 10 -35 9 -16 9 -24 1
-29 -8 -5 -8 -8 0 -14 7 -4 13 -17 14 -28 1 -12 5 -22 9 -22 4 0 7 -3 7 -7 -4
-28 5 -42 32 -52 46 -16 63 -14 90 12 14 12 30 22 37 23 7 1 19 2 28 3 22 2
12 25 -12 26 -57 1 -100 28 -153 96 -30 38 -66 76 -79 85 l-25 17 22 -31z"/>
<path d="M2266 2664 c-5 -14 -4 -15 9 -4 17 14 19 20 6 20 -5 0 -12 -7 -15
-16z"/>
<path d="M1370 2656 c0 -8 4 -17 9 -20 5 -4 7 3 4 14 -6 23 -13 26 -13 6z"/>
<path d="M2388 2555 c-23 -25 -66 -57 -97 -72 -31 -15 -76 -39 -99 -54 -101
-63 -290 -133 -412 -152 -19 -3 -17 -5 9 -6 28 -1 33 -4 28 -21 -4 -15 0 -20
14 -20 10 0 18 -4 17 -9 -2 -5 0 -9 5 -10 4 0 17 -10 29 -21 43 -40 116 -49
208 -26 159 40 226 60 239 70 8 6 34 52 58 102 36 77 44 104 49 177 4 48 4 87
0 87 -4 0 -26 -20 -48 -45z m-187 -148 c-6 -8 -9 -16 -6 -18 2 -3 -5 -11 -17
-18 -19 -12 -20 -11 -14 6 5 16 5 16 -6 2 -7 -9 -20 -18 -28 -21 -10 -4 -6 -8
14 -13 20 -5 31 -4 37 6 4 7 11 10 16 5 8 -7 -23 -31 -42 -31 -5 0 -16 -4 -23
-9 -8 -4 -11 -3 -10 5 2 6 -3 14 -11 17 -10 3 -12 0 -8 -12 4 -9 2 -16 -3 -16
-6 0 -11 8 -11 18 -1 16 -2 16 -6 -1 -4 -14 -8 -15 -18 -7 -9 8 -15 8 -20 0
-9 -15 -25 -12 -25 4 0 8 22 22 53 32 28 9 68 27 87 40 40 26 58 31 41 11z
m-218 -105 c-4 -16 -26 -21 -53 -12 -4 1 43 26 57 30 0 0 -1 -8 -4 -18z"/>
<path d="M1663 2563 c-10 -4 -10 -7 0 -18 6 -7 19 -22 27 -34 28 -41 41 -23
14 19 -15 22 -27 40 -28 39 0 0 -7 -3 -13 -6z"/>
<path d="M2755 2540 c-4 -6 -11 -8 -16 -5 -5 4 -9 -2 -9 -12 0 -11 -4 -23 -8
-28 -4 -6 -16 -35 -27 -65 -55 -164 -128 -253 -339 -413 -66 -50 -46 -46 31 6
165 112 272 234 318 362 25 69 55 134 66 141 12 7 12 24 0 24 -6 0 -13 -5 -16
-10z"/>
<path d="M1730 2460 c0 -5 5 -10 11 -10 5 0 7 5 4 10 -3 6 -8 10 -11 10 -2 0
-4 -4 -4 -10z"/>
<path d="M1620 2416 c8 -8 26 -17 40 -21 21 -5 20 -3 -8 14 -37 24 -53 27 -32
7z"/>
<path d="M2030 2004 c-25 -7 -68 -13 -96 -13 -68 -1 -156 -18 -165 -32 -3 -6
-4 -19 -2 -29 4 -16 9 -15 50 8 39 21 58 25 117 24 49 -1 66 1 56 8 -8 5 -11
10 -7 10 4 0 19 -7 32 -16 29 -19 55 -12 55 14 0 10 5 23 12 30 14 14 8 14
-52 -4z"/>
<path d="M1570 1926 c0 -2 7 -6 15 -10 8 -3 15 -1 15 4 0 6 -7 10 -15 10 -8 0
-15 -2 -15 -4z"/>
<path d="M1625 1909 c4 -5 23 -16 43 -25 20 -8 50 -27 66 -42 22 -20 27 -22
23 -9 -4 10 -7 23 -7 28 0 10 -51 35 -103 50 -17 5 -25 4 -22 -2z"/>
<path d="M1830 1726 c0 -2 8 -10 18 -17 15 -13 16 -12 3 4 -13 16 -21 21 -21
13z"/>
<path d="M2630 1119 c0 -5 5 -7 10 -4 6 3 10 8 10 11 0 2 -4 4 -10 4 -5 0 -10
-5 -10 -11z"/>
<path d="M2935 70 c4 -6 11 -8 16 -5 14 9 11 15 -7 15 -8 0 -12 -5 -9 -10z"/>
<path d="M2915 40 c-3 -5 -1 -10 4 -10 6 0 11 5 11 10 0 6 -2 10 -4 10 -3 0
-8 -4 -11 -10z"/>
</g>
</svg>
